<svg xmlns="http://www.w3.org/2000/svg" width="1048.6" height="467.7" viewBox="0 0 1048.6 467.7">
  <g id="Group_332" data-name="Group 332" transform="translate(-1223.3 110.4)">
    <g id="text-codepen" data-name="Group 331">
      <path id="Path_519" data-name="Path 519" d="M1492.1,95.9a3.365,3.365,0,0,0,1.7.8,3.409,3.409,0,0,0,2.1-.4,6.161,6.161,0,0,0,2.6-2.2,4.918,4.918,0,0,0,1-3,2.31,2.31,0,0,0-2.2-2.8,14.719,14.719,0,0,0-2.1,0,8.533,8.533,0,0,1-1.6,0,4.671,4.671,0,0,1-1.7-.3,2.765,2.765,0,0,1-1.3-1.1,4.616,4.616,0,0,1-.5-2.3,8,8,0,0,1,.8-3.3,12.085,12.085,0,0,1,2-3,12.876,12.876,0,0,1,3-2.2,5.479,5.479,0,0,1,2.8-.7,4.756,4.756,0,0,1,2.1.7,4.014,4.014,0,0,1,1.3,1.6L1500,80a9.372,9.372,0,0,0-.9-1.2,2.246,2.246,0,0,0-1.4-.6,4.146,4.146,0,0,0-2,.4,5.388,5.388,0,0,0-2.4,2,5.77,5.77,0,0,0-.8,2.3,2.41,2.41,0,0,0,.4,1.5,2.37,2.37,0,0,0,1.4.8,12.038,12.038,0,0,0,2.7,0h1.7a4.284,4.284,0,0,1,1.6.5,3.039,3.039,0,0,1,1.2,1.3,5.355,5.355,0,0,1,.5,2.4,9.816,9.816,0,0,1-.5,2.9,9.388,9.388,0,0,1-1.4,2.6,13.723,13.723,0,0,1-2,2.2,11.353,11.353,0,0,1-2.3,1.5,5.752,5.752,0,0,1-3,.6,5.007,5.007,0,0,1-2.4-.9,5.807,5.807,0,0,1-1.6-1.9l1.9-2.3A5.368,5.368,0,0,0,1492.1,95.9Z"/>
      <path id="Path_520" data-name="Path 520" d="M1508.4,70.5,1508,93l-2.5,1.1.4-22.5Zm-1.5,20.4,10.4-4.7-.1,2.6-10.4,4.7Zm.2-10.9,9.8-4.5-.1,2.6-9.8,4.5Zm.2-9,10.4-4.9-.1,2.6-10.4,4.9Z"/>
      <path id="Path_521" data-name="Path 521" d="M1524.8,62.8l-.6,23-2.6,1.1.6-23Zm-1.7,20.9,10.8-4.7-.1,2.7L1523,86.4Zm.3-11.2,10.2-4.6-.1,2.7-10.2,4.6Zm.3-9.2,10.8-5-.1,2.7-10.8,5Z"/>
      <path id="Path_522" data-name="Path 522" d="M1551,67.3a4.227,4.227,0,0,0,2.9,2,6.761,6.761,0,0,0,4.1-.5,14.587,14.587,0,0,0,3-1.7,18.434,18.434,0,0,0,2.5-2.3,23.422,23.422,0,0,0,2-2.7l-.2,3.9a17.181,17.181,0,0,1-3.3,3.3,19.348,19.348,0,0,1-4.3,2.4,9.149,9.149,0,0,1-4.4.9,6.062,6.062,0,0,1-3.5-1.1,5.939,5.939,0,0,1-2.2-2.9,12.515,12.515,0,0,1-.7-4.5,16.731,16.731,0,0,1,1.1-5.3,21.7,21.7,0,0,1,2.6-5,24.746,24.746,0,0,1,3.7-4.2,18.168,18.168,0,0,1,4.5-2.9,12.394,12.394,0,0,1,4.2-1.2,5.415,5.415,0,0,1,3.1.6l-.2,3.9a4,4,0,0,0-1.8-1,6.168,6.168,0,0,0-2.4-.2,10.048,10.048,0,0,0-3,.9,14.792,14.792,0,0,0-4.2,3,18.1,18.1,0,0,0-3.2,4.6,14.388,14.388,0,0,0-1.4,5.4A7.981,7.981,0,0,0,1551,67.3Z"/>
      <path id="Path_523" data-name="Path 523" d="M1570.4,54.1a16.018,16.018,0,0,1,3-4.2,12.883,12.883,0,0,1,4.2-2.8,7.006,7.006,0,0,1,4.1-.7,4.092,4.092,0,0,1,2.8,1.8,6.8,6.8,0,0,1,.9,4,11.875,11.875,0,0,1-1.3,4.8,14.318,14.318,0,0,1-3.1,4.2,14.026,14.026,0,0,1-4.2,2.8,7.524,7.524,0,0,1-4,.6,3.7,3.7,0,0,1-2.7-1.8,6.66,6.66,0,0,1-.8-3.9A9.957,9.957,0,0,1,1570.4,54.1Zm2,6.3a2.689,2.689,0,0,0,1.8,1.3,3.845,3.845,0,0,0,2.7-.4,8.2,8.2,0,0,0,2.8-1.9,9.988,9.988,0,0,0,2-2.9,10.173,10.173,0,0,0,.9-3.3,4.529,4.529,0,0,0-.5-2.7,2.689,2.689,0,0,0-1.8-1.3,4.481,4.481,0,0,0-2.7.4,9.922,9.922,0,0,0-2.8,1.9,11.018,11.018,0,0,0-2,2.8,10.173,10.173,0,0,0-.9,3.3A4.549,4.549,0,0,0,1572.4,60.4Z"/>
      <path id="Path_524" data-name="Path 524" d="M1589.1,46.1a14.318,14.318,0,0,1,3.1-4.2,13.253,13.253,0,0,1,4.1-2.7,4.981,4.981,0,0,1,3.5-.4,3.607,3.607,0,0,1,2.2,2,9.125,9.125,0,0,1,.6,4.3,13.6,13.6,0,0,1-1.2,5,13.808,13.808,0,0,1-2.6,4,12.3,12.3,0,0,1-3.6,2.5,6.224,6.224,0,0,1-3.9.5,3.7,3.7,0,0,1-2.7-1.8,7.343,7.343,0,0,1-.8-4.2A12.8,12.8,0,0,1,1589.1,46.1Zm2.1,6.9a2.47,2.47,0,0,0,1.9,1.2,5.4,5.4,0,0,0,2.7-.4,7.411,7.411,0,0,0,2.5-1.7,12.064,12.064,0,0,0,2.1-2.8,8.792,8.792,0,0,0,1-3.6,4.5,4.5,0,0,0-.6-3,2.646,2.646,0,0,0-1.9-1.2,4.986,4.986,0,0,0-2.4.3,9.522,9.522,0,0,0-2.8,1.8,8.26,8.26,0,0,0-2.1,2.8,8.785,8.785,0,0,0-1,3.5A4.658,4.658,0,0,0,1591.2,53Zm14.3-28.5L1603.7,53l-2.9,1.1,1.8-28.4Z"/>
      <path id="Path_525" data-name="Path 525" d="M1611.3,49.3a4.333,4.333,0,0,1-2.6-2,7.754,7.754,0,0,1-.7-4.2,12.48,12.48,0,0,1,1.4-5,16.232,16.232,0,0,1,3.1-4.3,15.118,15.118,0,0,1,4.5-2.9,7.681,7.681,0,0,1,4.2-.7,3.644,3.644,0,0,1,2.6,1.9,7.165,7.165,0,0,1,.6,4.3.75.75,0,0,1-.1.5v.4L1609.8,43l.2-2.5,12.2-4.8-1.3,2.2a4.889,4.889,0,0,0,.3-.7,6.374,6.374,0,0,1,.2-.7,4.331,4.331,0,0,0-.4-2.4,2.609,2.609,0,0,0-1.6-1.1,4.814,4.814,0,0,0-2.5.4,8.123,8.123,0,0,0-2.9,1.9,9.506,9.506,0,0,0-2,2.8,10.591,10.591,0,0,0-.9,3.6,6.254,6.254,0,0,0,.4,3.2,2.044,2.044,0,0,0,1.7,1.4,4.525,4.525,0,0,0,2.9-.4,8.945,8.945,0,0,0,3.1-1.9,13.391,13.391,0,0,0,2.4-3.2l2.3.6a18.361,18.361,0,0,1-3.6,4.6,16.631,16.631,0,0,1-4.8,2.9A9.167,9.167,0,0,1,1611.3,49.3Z"/>
      <path id="Path_526" data-name="Path 526" d="M1633.5,15.9l-2.2,26.5-3.2,1.2,2.2-26.4Zm-1.4.6,5.5-2.2a10.4,10.4,0,0,1,4.6-.9,4.205,4.205,0,0,1,3.1,1.5,5.54,5.54,0,0,1,.9,3.8,11.37,11.37,0,0,1-1.6,4.8,16.949,16.949,0,0,1-3.5,4.1,16.366,16.366,0,0,1-4.8,2.8l-5.5,2.1.3-3,5.5-2.1a12.072,12.072,0,0,0,4.4-2.9,7.445,7.445,0,0,0,2-4.3c.1-1.7-.3-2.7-1.3-3.1a5.873,5.873,0,0,0-4.2.4l-5.5,2.2Z"/>
      <path id="Path_527" data-name="Path 527" d="M1650.3,34.6a3.955,3.955,0,0,1-2.7-2.2,7.505,7.505,0,0,1-.6-4.4,14.17,14.17,0,0,1,1.6-5.3,13.641,13.641,0,0,1,3.5-4.4,15.405,15.405,0,0,1,4.9-3,8.924,8.924,0,0,1,4.6-.7,3.816,3.816,0,0,1,2.7,2.1,7.933,7.933,0,0,1,.6,4.6,1.269,1.269,0,0,1-.1.6c0,.2-.1.3-.1.4L1649,28.1l.2-2.6,13.2-4.9-1.5,2.3a4.889,4.889,0,0,0,.3-.7,2.544,2.544,0,0,0,.2-.7,3.785,3.785,0,0,0-.4-2.5,2.691,2.691,0,0,0-1.7-1.2,4.664,4.664,0,0,0-2.7.4,11.3,11.3,0,0,0-3.2,1.9,10.584,10.584,0,0,0-2.2,2.9,11.357,11.357,0,0,0-1.1,3.7,8.042,8.042,0,0,0,.3,3.3,2.49,2.49,0,0,0,1.8,1.5,5.119,5.119,0,0,0,3.1-.4,10.53,10.53,0,0,0,3.4-2,14.909,14.909,0,0,0,2.7-3.3l2.5.6a17.079,17.079,0,0,1-4,4.8,16.83,16.83,0,0,1-5.2,3A7.679,7.679,0,0,1,1650.3,34.6Z"/>
      <path id="Path_528" data-name="Path 528" d="M1681,10.4c-.6-.5-1.6-.5-2.9-.1a11.04,11.04,0,0,0-2.6,1.5,9.677,9.677,0,0,0-1.9,2.2,6.22,6.22,0,0,0-.9,2.6l-1.2,11.1-3.3,1.1,1.9-18.2,3.3-1.2-.3,2.9a12.67,12.67,0,0,1,2.6-3.3,9,9,0,0,1,3.4-2c2-.7,3.6-.7,4.6.2s1.5,2.4,1.2,4.6l-1.3,11.7-3.4,1.2,1.2-11.2C1681.8,11.9,1681.6,10.9,1681,10.4Z"/>
      <path id="Path_529" data-name="Path 529" d="M1710.6-13.3l-3.7,29-3.7,1.2,3.7-28.9Zm-1.6.5,6.3-2.3a13.694,13.694,0,0,1,5.3-.9,4.346,4.346,0,0,1,3.4,1.7,5.137,5.137,0,0,1,.8,4.2,11.965,11.965,0,0,1-2,5.2,17.5,17.5,0,0,1-4.2,4.4,18.628,18.628,0,0,1-5.6,2.9l-6.3,2.1.4-3.3,6.3-2.2a13.216,13.216,0,0,0,5.1-3.1,7.653,7.653,0,0,0,2.4-4.7c.2-1.8-.2-3-1.4-3.4-1.2-.5-2.7-.3-4.8.4l-6.3,2.2Z"/>
      <path id="Path_530" data-name="Path 530" d="M1735.7-22.2l-4.3,29.9-3.9,1.2,4.3-29.8Zm-1.8.6,6.6-2.3a14.94,14.94,0,0,1,5.5-.9,5.212,5.212,0,0,1,3.6,1.8,5.53,5.53,0,0,1,.8,4.4,12.256,12.256,0,0,1-2.2,5.3,19.217,19.217,0,0,1-4.5,4.5,21.315,21.315,0,0,1-5.8,3l-6.6,2.2.5-3.2,6.6-2.2a15.017,15.017,0,0,0,3.8-1.9,12.392,12.392,0,0,0,2.8-2.8,8.9,8.9,0,0,0,1.4-3.5,3.5,3.5,0,0,0-.5-2.8,2.788,2.788,0,0,0-2.2-1.1,8.454,8.454,0,0,0-3.6.6l-6.6,2.3ZM1739.7-9l9.6,11.1-4.9,1.6-9-11.2Z"/>
      <path id="Path_531" data-name="Path 531" d="M1756.3-20.6a31.942,31.942,0,0,1,4.4-6.2,36.769,36.769,0,0,1,6-5.1,27.606,27.606,0,0,1,7.1-3.5,19.62,19.62,0,0,1,6.8-1.1,10.255,10.255,0,0,1,5.1,1.6,7.627,7.627,0,0,1,2.9,3.9,13.067,13.067,0,0,1,.3,6,22.145,22.145,0,0,1-2.4,6.8,28.289,28.289,0,0,1-4.6,6.3,34.4,34.4,0,0,1-6.2,5.1,24.7,24.7,0,0,1-7.2,3.3,18.265,18.265,0,0,1-6.7.8,9.257,9.257,0,0,1-4.9-1.7,7.3,7.3,0,0,1-2.7-3.9,12.375,12.375,0,0,1-.2-5.8A18.808,18.808,0,0,1,1756.3-20.6Zm2.6,10.9a5.628,5.628,0,0,0,3.8,2.9,12,12,0,0,0,6.4-.4,24.493,24.493,0,0,0,7-3.6,24.7,24.7,0,0,0,5.4-5.8,17.085,17.085,0,0,0,2.8-6.9,8.329,8.329,0,0,0-.7-5.8,5.781,5.781,0,0,0-4-2.9,12.67,12.67,0,0,0-6.5.6,21.26,21.26,0,0,0-6.9,3.8,24.253,24.253,0,0,0-5.3,5.8,18.19,18.19,0,0,0-2.7,6.7A8.964,8.964,0,0,0,1758.9-9.7Z"/>
      <path id="Path_532" data-name="Path 532" d="M1785.3-3.2a6.491,6.491,0,0,0,2.3-.2,5.511,5.511,0,0,0,2.5-1.6,6.1,6.1,0,0,0,1.7-3.5l6.3-34.3,4.1-1.3-6.4,34.9a12.325,12.325,0,0,1-1.1,3.4,10.517,10.517,0,0,1-2,2.7,10.518,10.518,0,0,1-2.7,2,11.961,11.961,0,0,1-3.3,1.3,7.432,7.432,0,0,1-2.5.3,5.04,5.04,0,0,1-1.9-.3,3.58,3.58,0,0,1-1.1-.6l2.7-3.6A1.838,1.838,0,0,0,1785.3-3.2Z"/>
      <path id="Path_533" data-name="Path 533" d="M1815.4-48.1l-6.5,32.6-4.4,1.2,6.4-32.5Zm-7.8,29.4,18.7-5.2-.8,3.8L1806.8-15Zm3.2-15.8,17.7-5.2-.8,3.8L1810-30.8Zm2.6-13,18.9-5.7-.8,3.8-18.8,5.6Z"/>
      <path id="Path_534" data-name="Path 534" d="M1840.4-33.4a7.033,7.033,0,0,0,4.2,3.3,11.87,11.87,0,0,0,6.7-.2,24.129,24.129,0,0,0,5.3-2,28.284,28.284,0,0,0,4.7-2.9,26.83,26.83,0,0,0,3.9-3.5l-1.3,5.5a33.27,33.27,0,0,1-6.1,4.2,39.488,39.488,0,0,1-7.4,2.8,21.221,21.221,0,0,1-7.3.7,10.007,10.007,0,0,1-5.3-2,8.355,8.355,0,0,1-2.9-4.4,13.053,13.053,0,0,1,.1-6.5,26.823,26.823,0,0,1,3-7.3,37.158,37.158,0,0,1,5.3-6.7,37.28,37.28,0,0,1,7-5.4,35.36,35.36,0,0,1,8-3.5,23.616,23.616,0,0,1,7.1-1.1,11.131,11.131,0,0,1,4.9,1.3l-1.3,5.5a6.427,6.427,0,0,0-2.7-1.8,11.418,11.418,0,0,0-3.9-.6,19.174,19.174,0,0,0-5,.8,25.413,25.413,0,0,0-7.6,3.7,28.1,28.1,0,0,0-6.3,6.1,18.614,18.614,0,0,0-3.6,7.5C1839.3-37.1,1839.5-35,1840.4-33.4Z"/>
      <path id="Path_535" data-name="Path 535" d="M1874.5-65.3l26.3-7-1,4.1-10.7,2.8-7.9,31.2-4.9,1.2,7.8-31-10.5,2.7Z"/>
      <path id="Path_536" data-name="Path 536" d="M1903.4-45.9a6.226,6.226,0,0,0,2.9,1.8,9.02,9.02,0,0,0,4.3-.1,13.862,13.862,0,0,0,6-2.8,9.474,9.474,0,0,0,3.3-4.6q.75-2.4-.3-3.6a4.827,4.827,0,0,0-2.9-1.6,26.535,26.535,0,0,0-4.2-.6c-1-.1-2-.2-3.2-.4a10.888,10.888,0,0,1-3.2-1A4.494,4.494,0,0,1,1904-61a6.407,6.407,0,0,1,0-3.9,14.285,14.285,0,0,1,2.9-5.2,21.073,21.073,0,0,1,5.3-4.4,23.815,23.815,0,0,1,6.8-2.8,13.74,13.74,0,0,1,5.9-.4,6.8,6.8,0,0,1,3.7,1.8,6.955,6.955,0,0,1,1.9,3l-5.2,3.3a7.1,7.1,0,0,0-1.3-2.2,4.8,4.8,0,0,0-2.4-1.4,8.423,8.423,0,0,0-4.1.2,12.887,12.887,0,0,0-5.5,2.7,8.736,8.736,0,0,0-2.5,3.6,3.786,3.786,0,0,0,.1,2.6,4.152,4.152,0,0,0,2.4,1.7,20.429,20.429,0,0,0,5.3.8,20.337,20.337,0,0,1,3.3.5,10.108,10.108,0,0,1,3,1.3,4.206,4.206,0,0,1,1.8,2.5,6.543,6.543,0,0,1-.2,4.1,15.262,15.262,0,0,1-2.3,4.6,20.576,20.576,0,0,1-3.9,3.9,24.07,24.07,0,0,1-4.8,3,25.91,25.91,0,0,1-5.1,1.8,12.242,12.242,0,0,1-6,.1,8.5,8.5,0,0,1-4.2-2.2,10.027,10.027,0,0,1-2.3-3.6l4.7-3.3Q1902.35-47.25,1903.4-45.9Z"/>
      <path id="Path_537" data-name="Path 537" d="M1968.6-66.4l13.3-2.4-1.5,4.2-13.2,2.4Z"/>
      <path id="Path_538" data-name="Path 538" d="M2031.2-69.1a5.748,5.748,0,0,0,2.9,2.4,9.988,9.988,0,0,0,4.8.5,15.892,15.892,0,0,0,7.2-2.5,11.519,11.519,0,0,0,4.5-4.9c.8-1.9,1-3.3.4-4.3a5.152,5.152,0,0,0-2.9-2.2,27.991,27.991,0,0,0-4.6-1.2,25.8,25.8,0,0,1-3.5-.9,11.856,11.856,0,0,1-3.4-1.6,4.9,4.9,0,0,1-1.9-2.8,7.577,7.577,0,0,1,.8-4.6,17.158,17.158,0,0,1,4.3-5.7,26.8,26.8,0,0,1,6.8-4.5,28.716,28.716,0,0,1,8.2-2.4,14.307,14.307,0,0,1,6.7.3,7.2,7.2,0,0,1,3.8,2.6,6.957,6.957,0,0,1,1.5,3.8l-6.5,3.2a7.939,7.939,0,0,0-1-2.7,4.825,4.825,0,0,0-2.4-2,9.324,9.324,0,0,0-4.6-.3,15.613,15.613,0,0,0-6.7,2.4,11.214,11.214,0,0,0-3.5,3.9,4.032,4.032,0,0,0-.3,3,4.49,4.49,0,0,0,2.4,2.3,22.012,22.012,0,0,0,5.8,1.6,24.19,24.19,0,0,1,3.6,1,10.758,10.758,0,0,1,3.1,1.9,5.8,5.8,0,0,1,1.6,3.1,8.452,8.452,0,0,1-1,4.8,18.59,18.59,0,0,1-3.5,5.1,25.481,25.481,0,0,1-5.1,4.1,33.19,33.19,0,0,1-6,2.9,28.15,28.15,0,0,1-6.1,1.4,14.68,14.68,0,0,1-6.8-.6,8.465,8.465,0,0,1-4.2-3.1,11.14,11.14,0,0,1-1.9-4.5l5.9-3.2A15.316,15.316,0,0,0,2031.2-69.1Z"/>
      <path id="Path_539" data-name="Path 539" d="M2088.9-107.5l-22.3,42.7-6.1.3,22.1-42.5Zm-22.6,38.1,25.8-1.5-2.6,4.9-25.7,1.4ZM2077.1-90l24.7-1.8-2.6,5-24.6,1.7Zm9-17.2,26.5-2.3-2.7,5-26.4,2.2Z"/>
      <path id="Path_540" data-name="Path 540" d="M2133.7-110.3l-28,44.1-6.1-.1,27.8-43.9Zm-27.6,39.1,26,.5-3.2,5-25.9-.6Zm13.5-21.2,25,.1-3.3,5.1-24.9-.2Zm11.2-17.8,26.9-.2-3.4,5.2-26.8.1Z"/>
      <path id="Path_541" data-name="Path 541" d="M2176.7-73.7c-1,3.1-1,5.8,0,8,1,2.3,3,3.9,6,4.9a24.79,24.79,0,0,0,6.7,1.2,30.021,30.021,0,0,0,7.2-.6,46.759,46.759,0,0,0,7.3-2.1l-7.2,7a36.66,36.66,0,0,1-9.9,1.5,26.746,26.746,0,0,1-9.4-1.7,15.07,15.07,0,0,1-7-4.6,10.811,10.811,0,0,1-2.4-7,19.8,19.8,0,0,1,2.3-8.6,39.054,39.054,0,0,1,7.2-9.5,54.812,54.812,0,0,1,10.7-8.5,60.9,60.9,0,0,1,12.1-5.8,50.314,50.314,0,0,1,12.2-2.6,29.548,29.548,0,0,1,10.9,1.1,19.24,19.24,0,0,1,7.5,3.9,9.832,9.832,0,0,1,2.7,5.8l-7.4,7.3a9.183,9.183,0,0,0-.3-4.7,8.633,8.633,0,0,0-2.7-3.9,13.191,13.191,0,0,0-5.3-2.7,24.007,24.007,0,0,0-10.8-.4,44.353,44.353,0,0,0-12.4,4.2,43.837,43.837,0,0,0-11.4,8.3C2179.9-80,2177.7-76.8,2176.7-73.7Z"/>
      <path id="Path_542" data-name="Path 542" d="M2226.1-65.7a22.985,22.985,0,0,1,10.1-.1,10.684,10.684,0,0,1,6.7,4.4,8.9,8.9,0,0,1,1.2,7.5,19.865,19.865,0,0,1-4.7,8.4,37.4,37.4,0,0,1-9.8,7.6,38.709,38.709,0,0,1-11.6,4.4,21.8,21.8,0,0,1-9.9-.1,10.394,10.394,0,0,1-6.4-4.4,9.262,9.262,0,0,1-1.2-7.3,18.693,18.693,0,0,1,4.5-8.2,34.5,34.5,0,0,1,9.4-7.5A37.761,37.761,0,0,1,2226.1-65.7Zm-15.6,13.6a14.313,14.313,0,0,0-3.2,5.5,5.928,5.928,0,0,0,.7,4.9,6.71,6.71,0,0,0,4.3,2.9,15.218,15.218,0,0,0,6.7-.1,25.356,25.356,0,0,0,7.9-3.1,24.32,24.32,0,0,0,6.7-5.2,14.421,14.421,0,0,0,3.3-5.6,5.821,5.821,0,0,0-.8-5,6.932,6.932,0,0,0-4.4-2.9,14.376,14.376,0,0,0-6.8.2,29.063,29.063,0,0,0-8,3.2A32.011,32.011,0,0,0,2210.5-52.1Z"/>
      <path id="Path_543" data-name="Path 543" d="M2269.9-6.9l-69.8,11,1.8-5.4,70-11.3ZM2241.5-31c2.7.9,4.6,2.4,5.5,4.5a10.693,10.693,0,0,1,0,7.5,18.669,18.669,0,0,1-5,7.5,33.429,33.429,0,0,1-9,5.9,46.818,46.818,0,0,1-12,3.5,29.021,29.021,0,0,1-10.6.1,8.985,8.985,0,0,1-5.7-3.4c-1-1.7-1.1-3.8-.2-6.5a22.211,22.211,0,0,1,5.1-8.2,37.172,37.172,0,0,1,21.1-11.1A25.421,25.421,0,0,1,2241.5-31Zm-21.2,8.4a23.744,23.744,0,0,0-6.2,4.8,15.907,15.907,0,0,0-3.4,5.6,6.03,6.03,0,0,0,.1,4.4,5.533,5.533,0,0,0,3.6,3c1.8.7,4.3.7,7.4.2a26.582,26.582,0,0,0,8.5-2.8,25.886,25.886,0,0,0,6.3-4.7,13.717,13.717,0,0,0,3.3-5.1,6.924,6.924,0,0,0,.1-5.1,5.361,5.361,0,0,0-3.7-3.1,16.785,16.785,0,0,0-7.5-.1A28.432,28.432,0,0,0,2220.3-22.6Z"/>
      <path id="Path_544" data-name="Path 544" d="M2192.7,14.6a33.691,33.691,0,0,1,10.4-3.9,25.51,25.51,0,0,1,10.3,0c3.4.7,5.8,2,7.1,3.8a7.684,7.684,0,0,1,1.1,6.7,21.755,21.755,0,0,1-5.1,8.5,34.4,34.4,0,0,1-9,7.3,29.163,29.163,0,0,1-10.1,3.6,24.532,24.532,0,0,1-10.1-.3c-.3-.1-.6-.2-1-.3a3.931,3.931,0,0,0-.6-.2l23.2-26.1,4.8,1-19.7,22-1.3-2.8a1.441,1.441,0,0,0,.7.6,9.236,9.236,0,0,0,1,.5,14.644,14.644,0,0,0,5.9,0,21.084,21.084,0,0,0,11.3-6.6c1.8-2.1,3-3.9,3.4-5.6a4.386,4.386,0,0,0-.9-4.2c-1-1.2-2.7-2-5.1-2.6a20.529,20.529,0,0,0-7.4-.2,19.8,19.8,0,0,0-6.9,2.5,25.774,25.774,0,0,0-6.1,5,15.981,15.981,0,0,0-3.5,5.8,5.9,5.9,0,0,0,.7,5l-6.5,3.6a9.164,9.164,0,0,1-.6-7.3c.8-2.7,2.6-5.6,5.5-8.9A29.249,29.249,0,0,1,2192.7,14.6Z"/>
      <path id="Path_545" data-name="Path 545" d="M2199.1,65.3l-10.7,8.4a48.608,48.608,0,0,1-10.3,6.2,30.252,30.252,0,0,1-10,2.6,13.739,13.739,0,0,1-8-1.6,6.128,6.128,0,0,1-3.4-5.2c-.1-2.2.7-4.5,2.3-7.1a35.263,35.263,0,0,1,7.4-7.8l10.4-8.3,4.2,2.4-10.4,8.3c-3.3,2.6-5.4,5.1-6.3,7.4a3.965,3.965,0,0,0,1.9,5.4c2.2,1.3,4.9,1.5,8.1.5a31,31,0,0,0,9.8-5.4l10.6-8.4Zm-2.8,2.2-36.7-21.1,6.1-5,37,21Z"/>
      <path id="Path_546" data-name="Path 546" d="M2126.7,73.4a21.38,21.38,0,0,1,9.2-.9,13.166,13.166,0,0,1,7.2,3.1,8,8,0,0,1,3,6.1,12.431,12.431,0,0,1-2.7,7.2,29.518,29.518,0,0,1-7.9,7.2,34.534,34.534,0,0,1-9.9,4.8,20.861,20.861,0,0,1-8.8.7,12.425,12.425,0,0,1-6.9-3.3,2.655,2.655,0,0,1-.5-.6c-.2-.2-.3-.3-.3-.4l29.2-19.8,2.8,2.5-24.7,16.7.5-3.3a1.827,1.827,0,0,0,.2.9,1.579,1.579,0,0,0,.5.8,7.033,7.033,0,0,0,4,1.8,14.216,14.216,0,0,0,5.3-.5,23.621,23.621,0,0,0,5.8-2.8,18.111,18.111,0,0,0,5.1-4.7,7.2,7.2,0,0,0,1.5-4.6,6.386,6.386,0,0,0-2.3-4.2,10.772,10.772,0,0,0-5-2.5,14.319,14.319,0,0,0-6.1.4,21.9,21.9,0,0,0-6.7,3.3,21.2,21.2,0,0,0-5.3,4.9,10.235,10.235,0,0,0-2,5.3l-6.3,1.7a15.01,15.01,0,0,1,3.2-7.7,34.517,34.517,0,0,1,8.3-7.5A32.522,32.522,0,0,1,2126.7,73.4Z"/>
      <path id="Path_547" data-name="Path 547" d="M2085.3,120.9a12.724,12.724,0,0,0,6.4-2,15.584,15.584,0,0,0,4.1-3.3,7.357,7.357,0,0,0,1.8-3.5,3.608,3.608,0,0,0-.9-3.1l-9-11.2,6-3.6,15,18.5-6.1,3.6-2.4-2.9a9.807,9.807,0,0,1-2.3,5.1,19.5,19.5,0,0,1-5.3,4.3c-3.6,2.1-7,3.2-10.1,3.1a9.268,9.268,0,0,1-7.3-3.4l-9.1-11.5,5.8-3.5,8.8,11.1A5.638,5.638,0,0,0,2085.3,120.9Z"/>
      <path id="Path_548" data-name="Path 548" d="M2047.6,160.5l-10.4,5.2a33.193,33.193,0,0,1-9.3,3.2,17.954,17.954,0,0,1-7.7-.1,7.276,7.276,0,0,1-4.8-3.7,6.91,6.91,0,0,1-.4-5.8,15.263,15.263,0,0,1,4.2-6.1,36.143,36.143,0,0,1,8-5.5l10.2-5.3,1.9,3.4-10.2,5.2a18.484,18.484,0,0,0-7,5.4c-1.5,2-1.7,3.8-.7,5.6s2.8,2.7,5.3,2.6a20.318,20.318,0,0,0,8.6-2.6l10.3-5.2Zm-2.8,1.4L2028.2,132l6.1-3.2,16.8,30Z"/>
      <path id="Path_549" data-name="Path 549" d="M1988.2,170.5l-23.2-6.6,6.9-3.4,22.8,6.9Zm18.9,9.8-9.9,4.6a29.419,29.419,0,0,1-8.8,2.7,14.883,14.883,0,0,1-7.1-.5,6.9,6.9,0,0,1-4.2-3.8,7.3,7.3,0,0,1,0-5.8,15.1,15.1,0,0,1,4.3-5.8,29.266,29.266,0,0,1,7.7-5l9.8-4.7,1.5,3.2-9.8,4.7a24.94,24.94,0,0,0-5.1,3.3,10.366,10.366,0,0,0-2.8,3.7,4.586,4.586,0,0,0,.1,3.8,4.722,4.722,0,0,0,2.7,2.5,9.775,9.775,0,0,0,4.6.3,23.31,23.31,0,0,0,5.7-1.8l9.9-4.6Zm-2.6,1.3-13.8-30.3,5.8-2.9,13.9,30.4Z"/>
      <path id="Path_550" data-name="Path 550" d="M1968.4,187.5a19.264,19.264,0,0,1-3.1,7.1,31.461,31.461,0,0,1-6.2,6.5,39.773,39.773,0,0,1-8.8,5.1,37.05,37.05,0,0,1-9.5,2.7,25.325,25.325,0,0,1-8.3-.2,15.608,15.608,0,0,1-6.4-2.8,11.844,11.844,0,0,1-3.8-5.3,12.936,12.936,0,0,1-.5-6.8,17.3,17.3,0,0,1,2.9-6.9,29.326,29.326,0,0,1,5.9-6.4,39.585,39.585,0,0,1,8.5-5.3,32.311,32.311,0,0,1,9.5-2.9,27.69,27.69,0,0,1,8.6-.1,15.622,15.622,0,0,1,6.7,2.8,12.209,12.209,0,0,1,4.1,5.4A15.552,15.552,0,0,1,1968.4,187.5Zm-11.1-9.4a15.621,15.621,0,0,0-7.7-1.5,23.756,23.756,0,0,0-9.3,2.4,25.678,25.678,0,0,0-8.1,5.5,17.638,17.638,0,0,0-4.4,6.8,10.507,10.507,0,0,0,0,7,9.36,9.36,0,0,0,4.3,5.1,14.837,14.837,0,0,0,7.5,1.6,28.382,28.382,0,0,0,17.6-7.6,17.735,17.735,0,0,0,4.6-7,9.664,9.664,0,0,0,0-7.1A8.614,8.614,0,0,0,1957.3,178.1Z"/>
      <path id="Path_551" data-name="Path 551" d="M1915,180.2a11.516,11.516,0,0,0-3.1.9,6.136,6.136,0,0,0-2.5,2.1,4.053,4.053,0,0,0-.5,3.6l10.1,32.1-5,2-10.1-32.5a6.405,6.405,0,0,1-.3-3.3,8.125,8.125,0,0,1,1.2-2.9,10.667,10.667,0,0,1,2.6-2.6,17.087,17.087,0,0,1,3.8-2.1,13.133,13.133,0,0,1,3.2-1,15.869,15.869,0,0,1,2.9-.3,8.438,8.438,0,0,1,1.9.2l-1.8,4A5.987,5.987,0,0,0,1915,180.2Z"/>
      <path id="Path_552" data-name="Path 552" d="M1893.5,199.7l-20.8,8.6-.9-3.3,20.8-8.7Zm4,14.5-19.8,8-.9-3.4,19.7-8Zm3.4,12-21.1,8.2-.9-3.4,21-8.3Zm-2.3.9-8.4-29.9,5.1-2.1,8.5,30Z"/>
      <path id="Path_553" data-name="Path 553" d="M1860.5,219.1a12.126,12.126,0,0,0-6.4-2,18.14,18.14,0,0,0-7.5,1.4,29.144,29.144,0,0,0-5,2.5,30.046,30.046,0,0,0-3.8,3.1,17.3,17.3,0,0,0-2.7,3.5L1834,223a25.064,25.064,0,0,1,4.7-4.5,30.244,30.244,0,0,1,7-3.6,26.687,26.687,0,0,1,7.9-1.9,20.5,20.5,0,0,1,7.1.6,12.955,12.955,0,0,1,5.5,3.1,11.01,11.01,0,0,1,3,5.5,13.83,13.83,0,0,1-.1,6.7,17.926,17.926,0,0,1-3.2,6.5,27.015,27.015,0,0,1-5.6,5.6,33.9,33.9,0,0,1-14.9,5.9,19.15,19.15,0,0,1-5.9-.4l-1.1-4.7a13.364,13.364,0,0,0,3.7,1.1,17.667,17.667,0,0,0,4.6,0,24.62,24.62,0,0,0,5.3-1.4,22.037,22.037,0,0,0,6.9-4.2,18.56,18.56,0,0,0,4.5-6.1,10.328,10.328,0,0,0,.6-6.9A8.051,8.051,0,0,0,1860.5,219.1Z"/>
      <path id="Path_554" data-name="Path 554" d="M1836.9,250.5l-24,8.5-.7-3.3,9.6-3.4-5.2-25.6,4.5-1.7,5.3,25.6,9.8-3.5Z"/>
      <path id="Path_555" data-name="Path 555" d="M1799.5,239.1a10.078,10.078,0,0,0-3.4-.9,8.688,8.688,0,0,0-4,.7,10.267,10.267,0,0,0-4.4,2.9,4.821,4.821,0,0,0-1.2,3.8,3.321,3.321,0,0,0,1.7,2.6,6.711,6.711,0,0,0,3.3.8c1.3,0,2.7,0,4.1-.1a31.121,31.121,0,0,1,3.2-.1,12.674,12.674,0,0,1,3.4.4,7.134,7.134,0,0,1,2.9,1.4,5.439,5.439,0,0,1,1.6,3,6.59,6.59,0,0,1-.7,4.3,11.864,11.864,0,0,1-3.3,3.9,16.691,16.691,0,0,1-5.3,2.8,15.5,15.5,0,0,1-5.3.9,10.312,10.312,0,0,1-4.1-1,10.613,10.613,0,0,1-2.9-2l3.4-3a11.261,11.261,0,0,0,2.1,1.5,7.67,7.67,0,0,0,2.8.8,8.655,8.655,0,0,0,3.7-.6,8.08,8.08,0,0,0,4.1-2.6,3.757,3.757,0,0,0,.9-3,2.646,2.646,0,0,0-1.2-1.9,6.152,6.152,0,0,0-3-1,23.107,23.107,0,0,0-5.3,0,17.093,17.093,0,0,1-3.2,0,16.471,16.471,0,0,1-3.2-.6,6.332,6.332,0,0,1-2.6-1.6,5.274,5.274,0,0,1-1.4-3,7.792,7.792,0,0,1,.3-3.7,10.848,10.848,0,0,1,2-3.4,17.843,17.843,0,0,1,3.2-2.9,19.038,19.038,0,0,1,4-2.1,16.176,16.176,0,0,1,5.6-1,15.251,15.251,0,0,1,4.9,1,14.488,14.488,0,0,1,3.8,2.4l-3.2,3.2C1801.6,240.3,1800.6,239.6,1799.5,239.1Z"/>
      <path id="Path_556" data-name="Path 556" d="M1750.8,261.9l-9.5,3.1-.4-2.9,9.5-3.1Z"/>
      <path id="Path_557" data-name="Path 557" d="M1706,270.8a7.454,7.454,0,0,0-2.8-1.1,8.276,8.276,0,0,0-3.4.3,7.793,7.793,0,0,0-3.8,2.4,4.7,4.7,0,0,0-1.2,3.5,3.307,3.307,0,0,0,1.3,2.6,6.622,6.622,0,0,0,2.7,1c1.1.1,2.2.2,3.4.2a23.482,23.482,0,0,1,2.6.1,12.662,12.662,0,0,1,2.8.6,5.131,5.131,0,0,1,2.3,1.5,5.545,5.545,0,0,1,1.2,2.9,6.723,6.723,0,0,1-.8,3.9,10.336,10.336,0,0,1-2.9,3.4,13.5,13.5,0,0,1-4.5,2.2,9.91,9.91,0,0,1-4.4.4,9.164,9.164,0,0,1-3.4-1.2,7.814,7.814,0,0,1-2.3-2.1l3-2.5a7.679,7.679,0,0,0,1.6,1.5,4.3,4.3,0,0,0,2.3.9,5.755,5.755,0,0,0,3.1-.3,6.549,6.549,0,0,0,3.5-2.1,3.686,3.686,0,0,0,.9-2.7,3.379,3.379,0,0,0-.9-1.9,4.482,4.482,0,0,0-2.4-1.1,24.5,24.5,0,0,0-4.4-.4c-.8,0-1.7-.1-2.7-.2a7.861,7.861,0,0,1-2.6-.8,5.649,5.649,0,0,1-2.1-1.7,5.885,5.885,0,0,1-1.1-2.9,7.781,7.781,0,0,1,.4-3.4,9.233,9.233,0,0,1,1.8-3,13.518,13.518,0,0,1,2.8-2.5,11.708,11.708,0,0,1,3.4-1.6,11.139,11.139,0,0,1,4.7-.5,10.723,10.723,0,0,1,7,3.8l-2.8,2.7A23.278,23.278,0,0,0,1706,270.8Z"/>
      <path id="Path_558" data-name="Path 558" d="M1683.4,275.5l-14.7,4.4-.3-3,14.7-4.5Zm1.2,12.9-13.9,4-.3-3,13.9-4.1Zm.9,10.6-14.8,4.1-.3-3,14.8-4.2Zm-1.6.4-2.4-26.5,3.6-1.1,2.4,26.5Z"/>
      <path id="Path_559" data-name="Path 559" d="M1660.7,282.3l-14.1,4.1-.2-2.9,14.1-4.1Zm.9,12.6-13.3,3.7-.2-2.9,13.3-3.7Zm.8,10.5-14.1,3.8-.2-2.9,14.1-3.8Zm-1.5.4-2-26,3.4-1,2,26.1Z"/>
      <path id="Path_560" data-name="Path 560" d="M1626.3,296.7a7.489,7.489,0,0,0-3.8-2.5,9.741,9.741,0,0,0-4.8,0,12.811,12.811,0,0,0-3.4,1.4,18.9,18.9,0,0,0-2.7,2,11.561,11.561,0,0,0-2,2.5l-.2-4a15.928,15.928,0,0,1,3.4-3,17.049,17.049,0,0,1,4.7-2,12.9,12.9,0,0,1,5.1-.4,8.966,8.966,0,0,1,4.3,1.6,9.262,9.262,0,0,1,3.1,3.4,11.131,11.131,0,0,1,1.3,4.9,14.626,14.626,0,0,1-.7,5.5,17.723,17.723,0,0,1-2.6,4.9,18.532,18.532,0,0,1-4.1,3.8,15.479,15.479,0,0,1-5.1,2.2,14.472,14.472,0,0,1-4.8.5,7.708,7.708,0,0,1-3.6-1.2l-.2-4a6.356,6.356,0,0,0,2.2,1.4,12.394,12.394,0,0,0,2.9.6,10.489,10.489,0,0,0,3.4-.4,10.269,10.269,0,0,0,4.7-2.5,13.352,13.352,0,0,0,3.4-4.4,11.549,11.549,0,0,0,1.1-5.5A7.3,7.3,0,0,0,1626.3,296.7Z"/>
      <path id="Path_561" data-name="Path 561" d="M1604.8,307.6a11,11,0,0,1-3,3.8,10.178,10.178,0,0,1-4.3,2.1,8.2,8.2,0,0,1-4.4,0,6.33,6.33,0,0,1-3.1-2.2,7.328,7.328,0,0,1-1.3-4,9.255,9.255,0,0,1,.9-4.6,10.717,10.717,0,0,1,2.9-3.8,10.343,10.343,0,0,1,4.3-2.2,8.2,8.2,0,0,1,4.4,0,6,6,0,0,1,3.2,2.2,6.909,6.909,0,0,1,1.3,4.1A8.284,8.284,0,0,1,1604.8,307.6Zm-2.8-6.7a3.592,3.592,0,0,0-2.1-1.5,4.773,4.773,0,0,0-2.9,0,6.9,6.9,0,0,0-2.8,1.5,8.322,8.322,0,0,0-1.9,2.6,6.784,6.784,0,0,0-.6,3.2,4.878,4.878,0,0,0,.8,2.8,3.749,3.749,0,0,0,2.1,1.6,4.773,4.773,0,0,0,2.9,0,6.73,6.73,0,0,0,2.8-1.4,7.008,7.008,0,0,0,1.9-2.6,5.924,5.924,0,0,0,.6-3.2A4.887,4.887,0,0,0,1602,300.9Z"/>
      <path id="Path_562" data-name="Path 562" d="M1571,330.5l-.8-26.7,2.7-.7.8,26.8Zm14.4-18a9.658,9.658,0,0,1-2.8,3.5,10.121,10.121,0,0,1-3.9,1.9,5.839,5.839,0,0,1-3.5-.2,4.847,4.847,0,0,1-2.4-2.3,9.989,9.989,0,0,1-1-4.2,13.462,13.462,0,0,1,.7-4.6,9.1,9.1,0,0,1,2.2-3.4,8.785,8.785,0,0,1,3.4-1.9,7.364,7.364,0,0,1,3.9,0,5.908,5.908,0,0,1,3,2.2,6.96,6.96,0,0,1,1.2,4.2A8.3,8.3,0,0,1,1585.4,312.5Zm-2.7-7a4.26,4.26,0,0,0-2-1.5,6.131,6.131,0,0,0-2.7,0,5.667,5.667,0,0,0-2.3,1.2,5.46,5.46,0,0,0-1.8,2.4,7.245,7.245,0,0,0-.7,3.3,4.985,4.985,0,0,0,.8,2.9,4.26,4.26,0,0,0,2,1.5,3.944,3.944,0,0,0,2.4.1,7.485,7.485,0,0,0,2.7-1.3,5.662,5.662,0,0,0,1.9-2.4,7.245,7.245,0,0,0,.7-3.3A8.278,8.278,0,0,0,1582.7,305.5Z"/>
      <path id="Path_563" data-name="Path 563" d="M1563.2,306.1a4.853,4.853,0,0,1,2.6,2.3,8.275,8.275,0,0,1,1,4.1,11.3,11.3,0,0,1-.9,4.5,10.022,10.022,0,0,1-2.6,3.5,8.911,8.911,0,0,1-3.9,1.9,6.832,6.832,0,0,1-3.8-.1,4.478,4.478,0,0,1-2.5-2.2,8.158,8.158,0,0,1-.9-4v-.8l12.9-3v2.3l-10.9,2.5,1-1.8c-.1.1-.1.3-.2.6a1.76,1.76,0,0,0-.1.6,4.142,4.142,0,0,0,.6,2.3,3.738,3.738,0,0,0,1.5,1.3,4.018,4.018,0,0,0,2.2.1,5.678,5.678,0,0,0,2.6-1.2,6.343,6.343,0,0,0,1.6-2.3,7.943,7.943,0,0,0,.6-3.2,6.678,6.678,0,0,0-.6-3,3.291,3.291,0,0,0-1.7-1.6,4.483,4.483,0,0,0-2.6-.1,6.778,6.778,0,0,0-2.7,1.3,6.517,6.517,0,0,0-1.9,2.6l-2.1-.9a10.471,10.471,0,0,1,2.9-3.6,11.681,11.681,0,0,1,4.2-2A5.269,5.269,0,0,1,1563.2,306.1Z"/>
      <path id="Path_564" data-name="Path 564" d="M1547.2,332.7l-4.6.9a6.919,6.919,0,0,1-3.8-.1,5.175,5.175,0,0,1-2.7-1.9,5.584,5.584,0,0,1-1-3.5,8.6,8.6,0,0,1,.9-3.9,8.33,8.33,0,0,1,2.6-3,10.086,10.086,0,0,1,3.8-1.7l4.6-1v2.7l-4.6,1a6.91,6.91,0,0,0-3.5,1.8,4.752,4.752,0,0,0-1.3,3.5,3.366,3.366,0,0,0,1.4,3,4.983,4.983,0,0,0,3.5.4l4.6-.9Zm-1.3.3-.2-23.4,2.7-.6.2,23.5Z"/>
      <path id="Path_565" data-name="Path 565" d="M1530.3,313.7a4.847,4.847,0,0,1,2.4,2.3,8.158,8.158,0,0,1,.9,4,10.03,10.03,0,0,1-.9,4.3,9.046,9.046,0,0,1-2.5,3.3,8.369,8.369,0,0,1-3.7,1.7,5.717,5.717,0,0,1-3.5-.2,4.885,4.885,0,0,1-2.3-2.2,9.014,9.014,0,0,1-.8-3.9v-.8l12-2.5v2.2l-10.1,2.1,1-1.7c-.1.1-.1.3-.2.5a1.269,1.269,0,0,0-.1.6,4.767,4.767,0,0,0,.5,2.2,2.949,2.949,0,0,0,1.4,1.3,2.98,2.98,0,0,0,2.1.1,6.591,6.591,0,0,0,2.4-1.1,4.826,4.826,0,0,0,1.5-2.2,9.489,9.489,0,0,0,.6-3.1,7.561,7.561,0,0,0-.5-2.9,3.359,3.359,0,0,0-1.5-1.6,4.148,4.148,0,0,0-2.5-.1,5.315,5.315,0,0,0-2.5,1.2,7.557,7.557,0,0,0-1.8,2.4l-2-.9a9.27,9.27,0,0,1,2.7-3.4,8.763,8.763,0,0,1,3.9-1.8A4.634,4.634,0,0,1,1530.3,313.7Z"/>
      <path id="Path_566" data-name="Path 566" d="M1508.7,329.3a2.142,2.142,0,0,0,2.1.5,3.7,3.7,0,0,0,1.8-.8,4.426,4.426,0,0,0,1.2-1.5,4.476,4.476,0,0,0,.4-2v-9.1l2.4-.5-.1,14.9-2.4.5V329a6.007,6.007,0,0,1-1.7,2.3,5.282,5.282,0,0,1-2.4,1.1,3.376,3.376,0,0,1-3.4-.9,5.8,5.8,0,0,1-1.2-4l.1-9.3,2.3-.5-.1,9A4.867,4.867,0,0,0,1508.7,329.3Z"/>
      <path id="Path_567" data-name="Path 567" d="M1490.9,343.1l-4,.7a6.322,6.322,0,0,1-3.4-.3,4.754,4.754,0,0,1-2.3-1.9,5.921,5.921,0,0,1-.8-3.4,7.4,7.4,0,0,1,.9-3.6,7.809,7.809,0,0,1,2.4-2.7,7.922,7.922,0,0,1,3.4-1.4l4-.7v2.5l-4,.7a4.921,4.921,0,0,0-3.1,1.6,4.377,4.377,0,0,0-1.2,3.2,3.549,3.549,0,0,0,1.1,2.9,4.376,4.376,0,0,0,3.1.5l4-.7Zm-1,.2.4-22.1,2.4-.5-.4,22.2Z"/>
      <path id="Path_568" data-name="Path 568" d="M1471.3,335.3l-6.4-9.5,2.8-.5,6.2,9.6Zm4.4,10.3-3.9.6a5.606,5.606,0,0,1-3.2-.3,4.522,4.522,0,0,1-2.2-1.9,5.768,5.768,0,0,1-.7-3.3,7.4,7.4,0,0,1,.9-3.6,8.289,8.289,0,0,1,2.3-2.6,7.887,7.887,0,0,1,3.3-1.3l3.9-.6-.1,2.3-3.9.6a4.851,4.851,0,0,0-2.1.8,4.978,4.978,0,0,0-1.5,1.7,4.383,4.383,0,0,0-.6,2.3,3.786,3.786,0,0,0,.5,2.2,2.365,2.365,0,0,0,1.4,1.2,4.713,4.713,0,0,0,2.1.2l3.9-.6Zm-1.1.1.6-21.7,2.3-.4-.6,21.8Z"/>
      <path id="Path_569" data-name="Path 569" d="M1462.4,341.3a12.633,12.633,0,0,1-5.1,6.5,8.225,8.225,0,0,1-3.7,1.3,7.187,7.187,0,0,1-3.6-.3,6.665,6.665,0,0,1-2.8-1.9,8.343,8.343,0,0,1-1.8-3.2,11.03,11.03,0,0,1-.5-4.2,16.279,16.279,0,0,1,.8-4.4,14.572,14.572,0,0,1,2-3.7,10.619,10.619,0,0,1,2.9-2.7,9.2,9.2,0,0,1,3.7-1.4,8.576,8.576,0,0,1,3.6.2,7.89,7.89,0,0,1,2.9,1.8,8.343,8.343,0,0,1,1.8,3.2,11.556,11.556,0,0,1,.5,4.2A11.7,11.7,0,0,1,1462.4,341.3Zm-2.3-8.3a5.532,5.532,0,0,0-2.4-2.6,5.143,5.143,0,0,0-3.5-.5,7.489,7.489,0,0,0-3.5,1.6,10.3,10.3,0,0,0-2.5,3.3,10.531,10.531,0,0,0-1,4.4,8.621,8.621,0,0,0,.7,4.1,5.344,5.344,0,0,0,2.3,2.6,5.057,5.057,0,0,0,3.5.6,6.627,6.627,0,0,0,3.5-1.6,10.577,10.577,0,0,0,2.6-3.3,12.387,12.387,0,0,0,1.1-4.4A8.756,8.756,0,0,0,1460.1,333Z"/>
      <path id="Path_570" data-name="Path 570" d="M1445.4,325.1a2.251,2.251,0,0,0-1.2-.1,2.119,2.119,0,0,0-1.2.8,3.4,3.4,0,0,0-.6,2.2l-.9,22.4-2,.2.9-22.6a14.592,14.592,0,0,1,.3-2.2,5.975,5.975,0,0,1,.8-1.6,4.148,4.148,0,0,1,1.2-1.1,4.284,4.284,0,0,1,1.6-.5,1.95,1.95,0,0,1,1.3.1,10.377,10.377,0,0,1,1,.4,3.8,3.8,0,0,1,.6.5l-1.2,2.2A.749.749,0,0,0,1445.4,325.1Z"/>
      <path id="Path_571" data-name="Path 571" d="M1434.3,351.2l-8.5,1,.1-2.3,8.5-1Zm.9-18.4-8.6,1.2.1-2.3,8.6-1.2Zm-.5,10.1-8.1,1,.1-2.3,8.1-1Zm-1.3,8.4,1-20.7,2.1-.3-1,20.8Z"/>
      <path id="Path_572" data-name="Path 572" d="M1420.8,338.4a6.066,6.066,0,0,0-2.1-2.6,4.346,4.346,0,0,0-2.9-.7,6.462,6.462,0,0,0-2.1.6,4.629,4.629,0,0,0-1.8,1.3,11.513,11.513,0,0,0-1.4,1.7l.2-3.2a8.026,8.026,0,0,1,2.3-1.9,6.633,6.633,0,0,1,3-.9,6.912,6.912,0,0,1,3.2.4,5.778,5.778,0,0,1,2.5,1.9,10.106,10.106,0,0,1,1.6,3.1,10.815,10.815,0,0,1,.4,4.1,15.691,15.691,0,0,1-.9,4.3,13.3,13.3,0,0,1-2,3.5,10.149,10.149,0,0,1-2.7,2.4,7.646,7.646,0,0,1-3.2,1.1,6.949,6.949,0,0,1-3-.3,5.956,5.956,0,0,1-2.1-1.4l.2-3.2a5.049,5.049,0,0,0,2.9,2.3,6.815,6.815,0,0,0,2.1.2,5.07,5.07,0,0,0,3-1.3,8.855,8.855,0,0,0,2.4-3,11.848,11.848,0,0,0,1.1-4.3A10.366,10.366,0,0,0,1420.8,338.4Z"/>
      <path id="Path_573" data-name="Path 573" d="M1408.4,353.9l-10,.9.1-2.3,4-.4,1.1-17.7,1.9-.2-1.1,17.7,4.1-.4Z"/>
      <path id="Path_574" data-name="Path 574" d="M1395.6,339.2a3.8,3.8,0,0,0-1.2-1.3,2.934,2.934,0,0,0-1.6-.4,2.716,2.716,0,0,0-2,1.1,4.3,4.3,0,0,0-.9,2.3,4.244,4.244,0,0,0,.3,2.1,3.448,3.448,0,0,0,1.2,1.2,7.742,7.742,0,0,0,1.6.7,3.378,3.378,0,0,1,1.2.6,3.806,3.806,0,0,1,1.3.9,3.766,3.766,0,0,1,.9,1.5,7.551,7.551,0,0,1,.3,2.3,6.083,6.083,0,0,1-.8,2.7,5.2,5.2,0,0,1-1.7,1.9,4.006,4.006,0,0,1-2.3.8,3.614,3.614,0,0,1-2.1-.4,5.018,5.018,0,0,1-1.5-1.4,6.634,6.634,0,0,1-.9-1.9l1.7-1.3c.2.5.4.9.6,1.4a5.243,5.243,0,0,0,1,1.1,1.883,1.883,0,0,0,1.5.3,2.854,2.854,0,0,0,1.9-.9,3.594,3.594,0,0,0,.7-1.8,3.888,3.888,0,0,0-.2-1.5,3.543,3.543,0,0,0-1-1.2,7.453,7.453,0,0,0-2-1l-1.2-.6a10.58,10.58,0,0,1-1.2-1,3.448,3.448,0,0,1-.8-1.6,5.487,5.487,0,0,1-.2-2.3,9.3,9.3,0,0,1,.5-2.4,7.608,7.608,0,0,1,1.2-1.9,6.529,6.529,0,0,1,1.6-1.3,6.356,6.356,0,0,1,1.8-.6,3.718,3.718,0,0,1,2.3.5,4.846,4.846,0,0,1,1.8,1.7,6.962,6.962,0,0,1,1.1,2.3l-1.6,1.4C1396.3,340.4,1396,339.8,1395.6,339.2Z"/>
      <path id="Path_575" data-name="Path 575" d="M1374,344.7l-4.1.2.2-2,4.1-.3Z"/>
      <path id="Path_576" data-name="Path 576" d="M1354.9,341.9a3.448,3.448,0,0,0-1-1.3,1.792,1.792,0,0,0-1.4-.4,2.272,2.272,0,0,0-1.8.9,3.981,3.981,0,0,0-.9,2.1,4.124,4.124,0,0,0,.2,2,2.939,2.939,0,0,0,1,1.2,6.376,6.376,0,0,0,1.4.8,10.91,10.91,0,0,0,1.1.6,3.459,3.459,0,0,1,1.1,1,5.3,5.3,0,0,1,.8,1.5,7.167,7.167,0,0,1,.2,2.2,6.613,6.613,0,0,1-.7,2.5,4.364,4.364,0,0,1-1.6,1.7,3.7,3.7,0,0,1-2.1.6,3.077,3.077,0,0,1-1.9-.6,8.637,8.637,0,0,1-1.3-1.4,6.7,6.7,0,0,1-.7-1.8l1.5-1.1a5.024,5.024,0,0,0,.5,1.3,4.438,4.438,0,0,0,.8,1.1,1.844,1.844,0,0,0,1.3.4,2.136,2.136,0,0,0,1.7-.8,3.286,3.286,0,0,0,.7-1.6,3.179,3.179,0,0,0-.2-1.4,3.145,3.145,0,0,0-.9-1.2,7.047,7.047,0,0,0-1.8-1.1c-.3-.2-.7-.4-1.1-.7a4.741,4.741,0,0,1-1-1,4.964,4.964,0,0,1-.8-3.7,14.194,14.194,0,0,1,.5-2.2,4.992,4.992,0,0,1,1.1-1.7,4.864,4.864,0,0,1,1.4-1.1,3.167,3.167,0,0,1,1.6-.4,3.606,3.606,0,0,1,2,.6,4.978,4.978,0,0,1,1.5,1.7,15.959,15.959,0,0,1,1,2.3l-1.5,1.3A5.687,5.687,0,0,0,1354.9,341.9Z"/>
      <path id="Path_577" data-name="Path 577" d="M1343.4,357l-6.6-.1.2-2.1,6.6.1Zm.8-7.4h-6.3l.2-2.1h6.3Zm.9-8.9-6.7.1.2-2.1,6.7-.1Zm-2.4,16.3,1.9-18.4h1.6l-1.9,18.4Z"/>
      <path id="Path_578" data-name="Path 578" d="M1333,356.8l-6.4-.2.2-2.1,6.4.2Zm.8-7.2-6.1-.1.2-2.1,6.1.1Zm1-8.9-6.4-.1.2-2.1h6.4Zm-2.5,16.1,2-18.1h1.6l-2,18.2Z"/>
      <path id="Path_579" data-name="Path 579" d="M1318.5,343.6a4.706,4.706,0,0,0-1.4-2.5,2.989,2.989,0,0,0-2.1-1,7.772,7.772,0,0,0-1.6.2,6.377,6.377,0,0,0-1.4.8,15.358,15.358,0,0,0-1.2,1.3l.4-2.8a7.335,7.335,0,0,1,1.8-1.4,5.27,5.27,0,0,1,2.3-.4,4.007,4.007,0,0,1,2.3.8,5.509,5.509,0,0,1,1.7,2,7.043,7.043,0,0,1,.9,3,11.468,11.468,0,0,1,0,3.7,18.949,18.949,0,0,1-.9,3.6,11,11,0,0,1-1.7,2.8,5.706,5.706,0,0,1-2.2,1.7,4.181,4.181,0,0,1-2.4.5,6.387,6.387,0,0,1-2.2-.6,5.8,5.8,0,0,1-1.5-1.6l.3-2.8a6.372,6.372,0,0,0,.8,1.4,2.94,2.94,0,0,0,1.2,1,2.6,2.6,0,0,0,1.5.4,3.306,3.306,0,0,0,2.3-.7,6.531,6.531,0,0,0,2-2.3,9.525,9.525,0,0,0,1.1-3.6A6.918,6.918,0,0,0,1318.5,343.6Z"/>
      <path id="Path_580" data-name="Path 580" d="M1307.9,346.6a6.882,6.882,0,0,1-1.7,2,3.39,3.39,0,0,1-2.1.6,2.748,2.748,0,0,1-1.9-1,5.077,5.077,0,0,1-1.1-2.2,7.953,7.953,0,0,1-.1-3.1,13.16,13.16,0,0,1,.9-3,5.646,5.646,0,0,1,1.7-2,2.856,2.856,0,0,1,2.1-.6,3.379,3.379,0,0,1,1.9.9,4.949,4.949,0,0,1,1.1,2.3,7.953,7.953,0,0,1,.1,3.1A6.634,6.634,0,0,1,1307.9,346.6Zm-.5-5.3a3.48,3.48,0,0,0-.7-1.5,2.091,2.091,0,0,0-1.3-.7,2.3,2.3,0,0,0-1.4.4,4.03,4.03,0,0,0-1.1,1.4,6.461,6.461,0,0,0-.6,2.1,4.8,4.8,0,0,0,.1,2.1,3,3,0,0,0,.7,1.5,1.613,1.613,0,0,0,1.3.6,2.3,2.3,0,0,0,1.4-.4,4.03,4.03,0,0,0,1.1-1.4,6.461,6.461,0,0,0,.6-2.1A4.585,4.585,0,0,0,1307.4,341.3Z"/>
      <path id="Path_581" data-name="Path 581" d="M1290.2,355.1l2.8-18.9,1.3.2-2.8,19Zm8.5-9.3a4.933,4.933,0,0,1-1.7,1.8,3.394,3.394,0,0,1-1.9.5,2.371,2.371,0,0,1-1.5-.9,4.031,4.031,0,0,1-.8-2.1,11.758,11.758,0,0,1,.1-3.2,12.61,12.61,0,0,1,.9-3.1,5.863,5.863,0,0,1,1.4-1.9,2.155,2.155,0,0,1,1.7-.5,2.587,2.587,0,0,1,1.7.9,5.666,5.666,0,0,1,1.1,2.2,8.569,8.569,0,0,1,0,3.2A8.074,8.074,0,0,1,1298.7,345.8Zm-.3-5.5a3.48,3.48,0,0,0-.7-1.5,1.425,1.425,0,0,0-1.2-.6,2.662,2.662,0,0,0-1.2.3,3.61,3.61,0,0,0-1.1,1.3,10.324,10.324,0,0,0-.7,2.1,8.023,8.023,0,0,0,0,2.2,3.48,3.48,0,0,0,.7,1.5,1.365,1.365,0,0,0,1,.6,1.517,1.517,0,0,0,1.3-.3,4.261,4.261,0,0,0,1.1-1.2,9.5,9.5,0,0,0,.7-2.2A5.528,5.528,0,0,0,1298.4,340.3Z"/>
      <path id="Path_582" data-name="Path 582" d="M1289.7,336.2a6.337,6.337,0,0,1,.9,2.2,11.047,11.047,0,0,1-.1,3.1,11.786,11.786,0,0,1-.9,3,4.722,4.722,0,0,1-1.6,1.8,2.815,2.815,0,0,1-2,.4,2.7,2.7,0,0,1-1.7-1,4.407,4.407,0,0,1-.8-2.1,11.047,11.047,0,0,1,.1-3.1.367.367,0,0,1,.1-.3V340l6.1,1-.3,1.6-5.2-.9.7-1c0,.1-.1.2-.2.4a.756.756,0,0,0-.1.4,4.818,4.818,0,0,0,0,1.7,3.338,3.338,0,0,0,.5,1.2,2.075,2.075,0,0,0,1,.6,1.517,1.517,0,0,0,1.3-.3,4,4,0,0,0,1-1.2,6.461,6.461,0,0,0,.6-2.1,9.239,9.239,0,0,0,.1-2.3,3.387,3.387,0,0,0-.6-1.5,1.855,1.855,0,0,0-1.2-.7,1.817,1.817,0,0,0-1.4.3,5.119,5.119,0,0,0-1.2,1.3l-.8-1.1a5.346,5.346,0,0,1,1.7-1.9,2.977,2.977,0,0,1,2.1-.4A3.035,3.035,0,0,1,1289.7,336.2Z"/>
      <path id="Path_583" data-name="Path 583" d="M1279.1,351l-2.2-.5a3.229,3.229,0,0,1-1.7-1,4.208,4.208,0,0,1-1-2,6.133,6.133,0,0,1,0-2.7,8.144,8.144,0,0,1,.9-2.5,3.05,3.05,0,0,1,1.6-1.4,2.539,2.539,0,0,1,1.9-.2l2.2.5-.3,1.9-2.2-.5a2.23,2.23,0,0,0-1.8.4,2.991,2.991,0,0,0-1,2.1,3.7,3.7,0,0,0,.2,2.4,1.923,1.923,0,0,0,1.5,1.1l2.2.5Zm-.6-.1,2.9-16.6,1.3.3-2.9,16.6Z"/>
      <path id="Path_584" data-name="Path 584" d="M1274,333.2a6.9,6.9,0,0,1,.8,2.3,7.86,7.86,0,0,1-.2,3,7.109,7.109,0,0,1-1,2.8,3.525,3.525,0,0,1-1.6,1.6,2.491,2.491,0,0,1-1.9.2,3.088,3.088,0,0,1-1.6-1.1,4.766,4.766,0,0,1-.7-2.2,10.56,10.56,0,0,1,.2-3,.367.367,0,0,1,.1-.3c0-.1,0-.2.1-.2l5.7,1.5-.3,1.6-4.8-1.3.7-.9c0,.1-.1.2-.2.3a.756.756,0,0,0-.1.4,10.287,10.287,0,0,0-.1,1.7,2.946,2.946,0,0,0,.5,1.3,1.6,1.6,0,0,0,.9.7,1.627,1.627,0,0,0,1.2-.1,2.707,2.707,0,0,0,1-1.1,7.708,7.708,0,0,0,.7-2,8.971,8.971,0,0,0,.2-2.2,2.95,2.95,0,0,0-.5-1.5,1.779,1.779,0,0,0-1.1-.8,1.481,1.481,0,0,0-1.3.2,3.4,3.4,0,0,0-1.2,1.2l-.8-1.2a4.587,4.587,0,0,1,1.7-1.7,2.748,2.748,0,0,1,2-.2A1.9,1.9,0,0,1,1274,333.2Z"/>
      <path id="Path_585" data-name="Path 585" d="M1262,338.1a1.174,1.174,0,0,0,.9,1,1.387,1.387,0,0,0,.9,0,1.779,1.779,0,0,0,.8-.7,5.024,5.024,0,0,0,.5-1.3l1.4-6.4,1.1.4-2.3,10.6-1.1-.4.4-1.6a2.854,2.854,0,0,1-1.1,1.1,1.672,1.672,0,0,1-1.2.1c-.7-.2-1.1-.8-1.4-1.7a8.537,8.537,0,0,1,0-3.2l1.4-6.6,1.1.4-1.4,6.4A6.015,6.015,0,0,0,1262,338.1Z"/>
      <path id="Path_586" data-name="Path 586" d="M1251.6,342l-1.9-1a3.16,3.16,0,0,1-1.4-1.4,4.755,4.755,0,0,1-.7-2.1,8.614,8.614,0,0,1,.2-2.7,5.623,5.623,0,0,1,1-2.2,2.649,2.649,0,0,1,1.5-1,2.532,2.532,0,0,1,1.7.2l1.9.9-.5,1.8-1.9-.9a1.532,1.532,0,0,0-1.6,0,2.676,2.676,0,0,0-1.1,1.8,4.835,4.835,0,0,0,0,2.4,2.409,2.409,0,0,0,1.2,1.4l1.9,1Zm-.5-.2,4-15.4,1.1.6-4,15.5Z"/>
      <path id="Path_587" data-name="Path 587" d="M1244.1,337.8l-1.7-1.2a4.172,4.172,0,0,1-1.3-1.6,6.465,6.465,0,0,1-.3-4.8,5.2,5.2,0,0,1,1.1-2.1,2.244,2.244,0,0,1,1.5-.8,2.044,2.044,0,0,1,1.6.5l1.8,1.2-.5,1.6-1.8-1.2c-.4-.2-.7-.4-1.1-.3a1.591,1.591,0,0,0-1,.5,3.652,3.652,0,0,0-.7,1.4,3.453,3.453,0,0,0-.2,1.7,2.3,2.3,0,0,0,.4,1.4,2.189,2.189,0,0,0,.9,1l1.7,1.2Zm.2-8.9-.8-9.4,1.3.9.7,9.3Zm-.6,8.6,4.6-14.9,1.1.7-4.6,14.9Z"/>
      <path id="Path_588" data-name="Path 588" d="M1238.8,328.9a4.092,4.092,0,0,1-1.7,1.3,2.787,2.787,0,0,1-1.8.1,3.568,3.568,0,0,1-1.7-1.1,6.749,6.749,0,0,1-1.3-2.2,12.658,12.658,0,0,1-.6-2.8,16.335,16.335,0,0,1,.1-3.1,11.05,11.05,0,0,1,.9-3.1,11.713,11.713,0,0,1,1.4-2.5,4.4,4.4,0,0,1,1.7-1.4,2.824,2.824,0,0,1,1.8-.2,2.958,2.958,0,0,1,1.7,1.1,6.749,6.749,0,0,1,1.3,2.2,12.658,12.658,0,0,1,.6,2.8,16.083,16.083,0,0,1-.1,3.1,15.826,15.826,0,0,1-.9,3.1A7.584,7.584,0,0,1,1238.8,328.9Zm1.3-6.7a9.68,9.68,0,0,0-.2-3,4.636,4.636,0,0,0-1.2-2.3,2.235,2.235,0,0,0-1.7-.9,2.9,2.9,0,0,0-1.8.8,5.747,5.747,0,0,0-1.5,2.3,11.816,11.816,0,0,0-.8,3.1,9.68,9.68,0,0,0,.2,3,5.481,5.481,0,0,0,1.1,2.3,2.235,2.235,0,0,0,1.7.9,2.9,2.9,0,0,0,1.8-.8,5.747,5.747,0,0,0,1.5-2.3A9.108,9.108,0,0,0,1240.1,322.2Z"/>
      <path id="Path_589" data-name="Path 589" d="M1237.3,309.1l-.3-.9a.675.675,0,0,0-.6-.4c-.3,0-.6.3-.9.8l-7.4,12.4-.6-1.3,7.5-12.6a2.9,2.9,0,0,1,.8-1,2.994,2.994,0,0,1,.8-.4,1.08,1.08,0,0,1,.7.3,3.49,3.49,0,0,1,.6.9,3.179,3.179,0,0,1,.3.9c.1.4.1.7.2,1v.8l-1,.4A3.445,3.445,0,0,0,1237.3,309.1Z"/>
      <path id="Path_590" data-name="Path 590" d="M1225,313.7l-1.7-7.1.9-.9,1.7,7.1Zm-.2-.7,8.1-8.2.4,1.7-8.1,8.2Zm3.4-2.5-1.6-6.7.9-.9,1.6,6.7Zm3.9-4-1.7-7.1.9-1,1.7,7.1Z"/>
      <path id="Path_591" data-name="Path 591" d="M1228.8,294.7a6.1,6.1,0,0,0,1.5-2.2,13.166,13.166,0,0,0,.9-3,17.964,17.964,0,0,0,.2-2.2,8.971,8.971,0,0,0-.2-1.8,4.566,4.566,0,0,0-.5-1.4l1.4.1a14.985,14.985,0,0,1,.4,2.4,18.359,18.359,0,0,1-.2,3.1,14.978,14.978,0,0,1-.8,3.2,12.6,12.6,0,0,1-1.3,2.6,6.563,6.563,0,0,1-1.6,1.7,3.085,3.085,0,0,1-1.8.5,2.469,2.469,0,0,1-1.6-.8,5.013,5.013,0,0,1-1.1-1.9,10.8,10.8,0,0,1-.5-2.7,18.743,18.743,0,0,1,.1-3.3,16.7,16.7,0,0,1,.7-3,11.214,11.214,0,0,1,1-2.2l1.3.1a5.671,5.671,0,0,0-.8,1.3,7.506,7.506,0,0,0-.7,1.8c-.2.6-.3,1.4-.5,2.2a8.081,8.081,0,0,0,0,3.1,5.675,5.675,0,0,0,.8,2.4,1.9,1.9,0,0,0,1.6,1A6.23,6.23,0,0,0,1228.8,294.7Z"/>
      <path id="Path_592" data-name="Path 592" d="M1226.4,277.4l3.8-9.5.8.8-1.5,3.9,6,6.2-.7,1.8-6-6.2-1.5,3.8Z"/>
      <path id="Path_593" data-name="Path 593" d="M1237.3,270.5a1.777,1.777,0,0,0,1-.4,3.157,3.157,0,0,0,1-1.2,6.051,6.051,0,0,0,.8-2.1,3.459,3.459,0,0,0-.2-1.8c-.2-.4-.5-.7-.8-.7a2.6,2.6,0,0,0-1,.4c-.3.3-.7.6-1.1,1l-.8.8a2.362,2.362,0,0,1-.9.6,1.412,1.412,0,0,1-.9.1,1.549,1.549,0,0,1-.8-.8,3.424,3.424,0,0,1-.4-1.8,9.689,9.689,0,0,1,.3-2.3,6.714,6.714,0,0,1,1-2.3,7.385,7.385,0,0,1,1.2-1.6,3.381,3.381,0,0,1,1.2-.6,2.079,2.079,0,0,1,1.1.1l-.5,2a1.949,1.949,0,0,0-.8-.1,1.136,1.136,0,0,0-.8.3,3.528,3.528,0,0,0-.9,1.1,6.4,6.4,0,0,0-.7,1.9,2.966,2.966,0,0,0,.2,1.4c.1.3.3.4.6.5a2.3,2.3,0,0,0,.9-.3,6.381,6.381,0,0,0,1.4-1.2,5.01,5.01,0,0,1,.8-.7,4.053,4.053,0,0,1,.9-.5,1.387,1.387,0,0,1,.9,0,1.456,1.456,0,0,1,.8.9,5.271,5.271,0,0,1,.5,1.5,5.439,5.439,0,0,1,0,1.8,6.684,6.684,0,0,1-.5,1.9,8.859,8.859,0,0,1-.8,1.7,4.483,4.483,0,0,1-1.4,1.6,3.653,3.653,0,0,1-1.4.7,2.769,2.769,0,0,1-1.3-.1l.4-1.9A3.4,3.4,0,0,0,1237.3,270.5Z"/>
      <path id="Path_594" data-name="Path 594" d="M1248.4,250.8l2.6-3.1.4,1.3-2.6,3.1Z"/>
      <path id="Path_595" data-name="Path 595" d="M1262.1,238.9a1.978,1.978,0,0,0,1.1.2,2.268,2.268,0,0,0,1.1-.7,4.532,4.532,0,0,0,1.1-1.9,3.455,3.455,0,0,0,.1-2,2.221,2.221,0,0,0-.6-1.2,1.147,1.147,0,0,0-1-.1c-.4.1-.8.3-1.2.4a3.553,3.553,0,0,0-.9.4,1.729,1.729,0,0,1-1,.1,1.8,1.8,0,0,1-.9-.4,2.26,2.26,0,0,1-.6-1.3,4.1,4.1,0,0,1,0-2.2,10.1,10.1,0,0,1,.7-2.3,9.024,9.024,0,0,1,1.4-2,3.291,3.291,0,0,1,1.5-1,2.845,2.845,0,0,1,1.3,0,3.592,3.592,0,0,1,1,.7l-.9,1.9a1.794,1.794,0,0,0-.7-.5,1.412,1.412,0,0,0-.9-.1,2.824,2.824,0,0,0-1.1.7,3.347,3.347,0,0,0-1,1.7,2.969,2.969,0,0,0-.1,1.6c.1.4.2.7.4.8.2.2.5.2.9.2a9.033,9.033,0,0,0,1.6-.5c.3-.1.6-.2,1-.3a1.7,1.7,0,0,1,1,0,4.054,4.054,0,0,1,.9.5,2.594,2.594,0,0,1,.6,1.4,5.919,5.919,0,0,1,.1,1.9,10.613,10.613,0,0,1-.4,1.9,14.154,14.154,0,0,1-.8,1.8,7.552,7.552,0,0,1-1.1,1.4,3.538,3.538,0,0,1-1.6,1,2.572,2.572,0,0,1-1.5-.1,2.729,2.729,0,0,1-1.2-.9l.8-1.9A1.764,1.764,0,0,0,1262.1,238.9Z"/>
      <path id="Path_596" data-name="Path 596" d="M1267.9,219.7l2.8,14.3-1.2,1.1-2.7-14.2Zm-.6.5,5.2-4.9.3,1.6-5.2,4.9Zm1.1,5.7,4.9-4.5.3,1.6-4.9,4.5Zm1.4,7,5.2-4.8.3,1.6-5.2,4.8Z"/>
      <path id="Path_597" data-name="Path 597" d="M1276.3,212l2.5,14.7-1.3,1.1-2.5-14.7Zm-.6.5,5.4-4.7.3,1.7-5.4,4.7Zm1,5.9,5.1-4.4.3,1.7-5.1,4.4Zm1.2,7.1,5.4-4.6.3,1.7-5.4,4.6Z"/>
      <path id="Path_598" data-name="Path 598" d="M1291.3,211.3a2.271,2.271,0,0,0,1.8.9,4.245,4.245,0,0,0,2.2-.8,9.267,9.267,0,0,0,1.4-1.4,7.841,7.841,0,0,0,1.1-1.8,11.921,11.921,0,0,0,.8-2l.4,2.5a11.712,11.712,0,0,1-1.4,2.5,12.907,12.907,0,0,1-2,2.1,5.346,5.346,0,0,1-2.3,1.1,2.772,2.772,0,0,1-2-.3,3.359,3.359,0,0,1-1.5-1.6,9.217,9.217,0,0,1-.9-2.8,10.281,10.281,0,0,1,0-3.5,22.064,22.064,0,0,1,.8-3.5,17.727,17.727,0,0,1,1.5-3.1,9.3,9.3,0,0,1,2.1-2.3,6.31,6.31,0,0,1,2.1-1.3,2.479,2.479,0,0,1,1.7,0l.4,2.5a2.1,2.1,0,0,0-1.1-.4,2.954,2.954,0,0,0-1.3.2,5.968,5.968,0,0,0-1.5.9,7.771,7.771,0,0,0-1.9,2.4,9.333,9.333,0,0,0-1.2,3.3,8.742,8.742,0,0,0-.1,3.6A4.868,4.868,0,0,0,1291.3,211.3Z"/>
      <path id="Path_599" data-name="Path 599" d="M1300.4,200.5a7.891,7.891,0,0,1,1.2-3,6.887,6.887,0,0,1,1.9-2.2,2.94,2.94,0,0,1,2.1-.8,2.289,2.289,0,0,1,1.7.8,4.33,4.33,0,0,1,.9,2.4,8.788,8.788,0,0,1-.2,3.2,13.428,13.428,0,0,1-1.2,3,6.089,6.089,0,0,1-2,2.2,3.272,3.272,0,0,1-2.1.8,2.091,2.091,0,0,1-1.7-.9,6.693,6.693,0,0,1-.9-2.4A17.947,17.947,0,0,1,1300.4,200.5Zm1.8,3.9a1.382,1.382,0,0,0,1.1.6,2.185,2.185,0,0,0,1.4-.5,6.391,6.391,0,0,0,1.3-1.5,6.984,6.984,0,0,0,.8-2,5.452,5.452,0,0,0,.1-2.2,3.781,3.781,0,0,0-.6-1.7,1.382,1.382,0,0,0-1.1-.6,2.979,2.979,0,0,0-1.4.5,6.391,6.391,0,0,0-1.3,1.5,6.984,6.984,0,0,0-.8,2,5.452,5.452,0,0,0-.1,2.2A3.781,3.781,0,0,0,1302.2,204.4Z"/>
      <path id="Path_600" data-name="Path 600" d="M1309.6,193.5a11,11,0,0,1,1.2-2.9,6.482,6.482,0,0,1,1.9-2.1,2.418,2.418,0,0,1,1.8-.6,2.053,2.053,0,0,1,1.4,1.1,7.23,7.23,0,0,1,.8,2.7,12.176,12.176,0,0,1-.1,3.3,8.485,8.485,0,0,1-1,2.8,5.194,5.194,0,0,1-1.7,1.9,3.465,3.465,0,0,1-2,.7,1.922,1.922,0,0,1-1.6-.9,6.5,6.5,0,0,1-.9-2.6A12.714,12.714,0,0,1,1309.6,193.5Zm1.8,4.2a1.382,1.382,0,0,0,1.1.6,2.979,2.979,0,0,0,1.4-.5,3.61,3.61,0,0,0,1.1-1.3,5.99,5.99,0,0,0,.8-2,6.383,6.383,0,0,0,.1-2.4,3.8,3.8,0,0,0-.6-1.8,1.382,1.382,0,0,0-1.1-.6,1.921,1.921,0,0,0-1.2.4,4.423,4.423,0,0,0-1.3,1.4,4.96,4.96,0,0,0-.8,2,5.864,5.864,0,0,0-.1,2.3A3.849,3.849,0,0,0,1311.4,197.7Zm4.6-19.4,2,18.1-1.4,1-2-18.1Z"/>
      <path id="Path_601" data-name="Path 601" d="M1321.7,193.5a2.173,2.173,0,0,1-1.6-1.1,5.7,5.7,0,0,1-.8-2.6,12.226,12.226,0,0,1,.2-3.3,13.428,13.428,0,0,1,1.2-3,8.484,8.484,0,0,1,2-2.2,3.473,3.473,0,0,1,2.1-.8,1.882,1.882,0,0,1,1.5,1,5.762,5.762,0,0,1,.8,2.7v.6l-7,4.8-.2-1.6,5.9-4.1-.5,1.5c0-.1.1-.3.1-.4v-.5a3.329,3.329,0,0,0-.5-1.5,1.193,1.193,0,0,0-.9-.5,2.421,2.421,0,0,0-1.3.4,5.707,5.707,0,0,0-1.3,1.4,6.392,6.392,0,0,0-.8,1.9,8.686,8.686,0,0,0-.1,2.3,8.3,8.3,0,0,0,.5,2,1.515,1.515,0,0,0,1,.8,2.638,2.638,0,0,0,1.5-.5,5.018,5.018,0,0,0,1.4-1.5,7.262,7.262,0,0,0,.9-2.2l1.3.2a10.358,10.358,0,0,1-1.4,3.2,8.041,8.041,0,0,1-2.2,2.3A2.195,2.195,0,0,1,1321.7,193.5Z"/>
      <path id="Path_602" data-name="Path 602" d="M1329.9,170.6l1.5,16.8-1.6,1-1.5-16.8Zm-.7.5,2.6-1.8a3.958,3.958,0,0,1,2.3-.9,2.06,2.06,0,0,1,1.7.7,3.711,3.711,0,0,1,.8,2.3,8.2,8.2,0,0,1-.3,3.1,9.2,9.2,0,0,1-1.4,2.8,6.3,6.3,0,0,1-2.2,2.1l-2.6,1.7-.2-1.9,2.6-1.8a7.032,7.032,0,0,0,2-2.2,4.771,4.771,0,0,0,.6-2.9c-.1-1-.4-1.7-1-1.8a2.32,2.32,0,0,0-2.1.6l-2.6,1.8Z"/>
      <path id="Path_603" data-name="Path 603" d="M1340.5,181a2.268,2.268,0,0,1-1.6-1.1,6.623,6.623,0,0,1-.8-2.7,9.61,9.61,0,0,1,.3-3.4,10.107,10.107,0,0,1,1.3-3,7.686,7.686,0,0,1,2.2-2.2,3.221,3.221,0,0,1,2.3-.7,2.014,2.014,0,0,1,1.6,1.1,6.651,6.651,0,0,1,.8,2.8v.6l-7.4,4.8-.1-1.7,6.2-4-.5,1.5a4.332,4.332,0,0,0,.1-.5V172a2.637,2.637,0,0,0-.5-1.5,1.1,1.1,0,0,0-1-.6,2.421,2.421,0,0,0-1.3.4,4.661,4.661,0,0,0-1.4,1.4,4.448,4.448,0,0,0-.8,2,8.968,8.968,0,0,0-.2,2.4,5.386,5.386,0,0,0,.5,2.1c.3.5.6.8,1.1.8a2.273,2.273,0,0,0,1.6-.5,5.357,5.357,0,0,0,1.5-1.5,6.951,6.951,0,0,0,1-2.3l1.3.2a14.341,14.341,0,0,1-1.5,3.3,8.763,8.763,0,0,1-2.4,2.3A4.358,4.358,0,0,1,1340.5,181Z"/>
      <path id="Path_604" data-name="Path 604" d="M1353.6,163.7c-.4-.3-.9-.2-1.5.2a6.275,6.275,0,0,0-1.2,1.1,5.064,5.064,0,0,0-.7,1.5,4.955,4.955,0,0,0-.2,1.7l.5,7-1.5,1-.8-11.5,1.5-1,.1,1.8a8.007,8.007,0,0,1,1-2.3,5.357,5.357,0,0,1,1.5-1.5c.9-.6,1.7-.7,2.3-.2a3.853,3.853,0,0,1,1.1,2.8l.5,7.3-1.6,1-.5-7.1A1.931,1.931,0,0,0,1353.6,163.7Z"/>
      <path id="Path_605" data-name="Path 605" d="M1366,147l1.1,18.1-1.7,1-1.1-18Zm-.8.5,2.9-1.8a4.775,4.775,0,0,1,2.5-.9,2.56,2.56,0,0,1,1.9.8,3.562,3.562,0,0,1,.8,2.5,7.6,7.6,0,0,1-.5,3.3,10.807,10.807,0,0,1-1.6,3,8.809,8.809,0,0,1-2.5,2.2l-2.9,1.7-.1-2.1,2.9-1.8a6.61,6.61,0,0,0,2.2-2.2,5.139,5.139,0,0,0,.7-3c-.1-1.1-.4-1.8-1-2a3.039,3.039,0,0,0-2.3.5l-2.9,1.8Z"/>
      <path id="Path_606" data-name="Path 606" d="M1377.4,140.1l1,18.4-1.8,1-1-18.4Zm-.8.5,3-1.8a5.072,5.072,0,0,1,2.6-.9,2.56,2.56,0,0,1,1.9.8,3.844,3.844,0,0,1,.8,2.6,8.049,8.049,0,0,1-.5,3.4,11.09,11.09,0,0,1-1.7,3,10.409,10.409,0,0,1-2.5,2.2l-3,1.8-.1-2,3-1.8a7.456,7.456,0,0,0,1.7-1.4,7.238,7.238,0,0,0,1.1-1.9,5.346,5.346,0,0,0,.3-2.2,2.648,2.648,0,0,0-.5-1.7,1.346,1.346,0,0,0-1.2-.5,3.187,3.187,0,0,0-1.7.6l-3,1.8Zm4.1,7.2,5.8,6.1-2.2,1.3-5.6-6.2Z"/>
      <path id="Path_607" data-name="Path 607" d="M1387.6,139.7a14.93,14.93,0,0,1,1.5-4,16.718,16.718,0,0,1,2.4-3.5,10.674,10.674,0,0,1,3.1-2.5,7.207,7.207,0,0,1,3.2-1.1,4.557,4.557,0,0,1,2.6.6,4.413,4.413,0,0,1,1.8,2.2,11.963,11.963,0,0,1,.8,3.6,14.974,14.974,0,0,1-.4,4.2,20.163,20.163,0,0,1-1.5,4.1,21.637,21.637,0,0,1-2.4,3.5,12.179,12.179,0,0,1-3.1,2.5,8.558,8.558,0,0,1-3.1,1,4.093,4.093,0,0,1-2.5-.7,4.831,4.831,0,0,1-1.7-2.2,9.072,9.072,0,0,1-.7-3.5A7.5,7.5,0,0,1,1387.6,139.7Zm2.5,6.4a3.413,3.413,0,0,0,2.2,1.5,4.415,4.415,0,0,0,3-.7,9.455,9.455,0,0,0,3-2.7,12.54,12.54,0,0,0,2-3.8,10.448,10.448,0,0,0,.6-4.3,7.657,7.657,0,0,0-.9-3.4,3.678,3.678,0,0,0-2.2-1.5,4.953,4.953,0,0,0-3.1.8,8.243,8.243,0,0,0-2.9,2.7,13.252,13.252,0,0,0-2.5,8A5.082,5.082,0,0,0,1390.1,146.1Z"/>
      <path id="Path_608" data-name="Path 608" d="M1403.4,148.2a2.607,2.607,0,0,0,1.1-.3,3.643,3.643,0,0,0,1-1.1,3.79,3.79,0,0,0,.4-2.2l-.8-20.7,1.8-1,.8,21a6.817,6.817,0,0,1-.2,2.1,12.668,12.668,0,0,1-.6,1.8,4.864,4.864,0,0,1-1.1,1.4,7.1,7.1,0,0,1-1.4,1,7.6,7.6,0,0,1-1.1.4h-1a1.627,1.627,0,0,1-.6-.3l.9-2.3C1402.8,148,1403.1,148.2,1403.4,148.2Z"/>
      <path id="Path_609" data-name="Path 609" d="M1412.7,119.6l.6,19.5-2,1-.6-19.5Zm-.9.5,8.2-4.6.1,2.3-8.2,4.5Zm.2,7.8,7.7-4.2.1,2.3-7.7,4.2Zm.3,9.5,8.2-4.4.1,2.3-8.2,4.4Z"/>
      <path id="Path_610" data-name="Path 610" d="M1426.1,126.5a3.6,3.6,0,0,0,2.4,1.6,4.465,4.465,0,0,0,3.1-.6,10.7,10.7,0,0,0,2.2-1.5,11.235,11.235,0,0,0,1.8-2,17.613,17.613,0,0,0,1.4-2.3l.1,3.2a17.272,17.272,0,0,1-2.3,2.9,15.4,15.4,0,0,1-3.1,2.2,7.467,7.467,0,0,1-3.3.9,4.3,4.3,0,0,1-2.7-.8,5.487,5.487,0,0,1-1.9-2.3,8.605,8.605,0,0,1-.7-3.8,21.181,21.181,0,0,1,.5-4.4,19.446,19.446,0,0,1,1.7-4.2,18.309,18.309,0,0,1,2.6-3.6,11.091,11.091,0,0,1,3.3-2.5,6.827,6.827,0,0,1,3.1-1.1,3.968,3.968,0,0,1,2.4.4l.1,3.2a2.752,2.752,0,0,0-1.5-.8,4.011,4.011,0,0,0-1.9-.1,7.39,7.39,0,0,0-2.2.8,10.934,10.934,0,0,0-3.1,2.7,14.122,14.122,0,0,0-2.2,4,12.061,12.061,0,0,0-.8,4.6A6.292,6.292,0,0,0,1426.1,126.5Z"/>
      <path id="Path_611" data-name="Path 611" d="M1438,105.8l11.1-5.9v2.4l-4.5,2.4.3,18.2-2.1,1.1-.3-18.1-4.5,2.3Z"/>
      <path id="Path_612" data-name="Path 612" d="M1453.6,114.5a2.574,2.574,0,0,0,1.5.7,3.443,3.443,0,0,0,1.9-.4,5.828,5.828,0,0,0,2.3-2.1,4.9,4.9,0,0,0,.9-2.8,2.814,2.814,0,0,0-.6-2,2.035,2.035,0,0,0-1.5-.6h-2a7.444,7.444,0,0,1-1.5,0,4.529,4.529,0,0,1-1.6-.3,2.335,2.335,0,0,1-1.2-1,4.2,4.2,0,0,1-.5-2.2,8.533,8.533,0,0,1,.6-3.1,9.957,9.957,0,0,1,1.8-2.9,8.973,8.973,0,0,1,2.7-2.1,5.646,5.646,0,0,1,2.6-.7,3.96,3.96,0,0,1,1.9.7,4.427,4.427,0,0,1,1.2,1.5l-1.9,2.2a3.179,3.179,0,0,0-2.2-1.7,3.289,3.289,0,0,0-1.8.4,4.378,4.378,0,0,0-2.1,1.9,3.866,3.866,0,0,0-.6,2.2,2.116,2.116,0,0,0,.4,1.4,1.858,1.858,0,0,0,1.3.7,10.222,10.222,0,0,0,2.5,0h1.5a2.976,2.976,0,0,1,1.5.5,4.559,4.559,0,0,1,1.2,1.2,4.616,4.616,0,0,1,.5,2.3,8.421,8.421,0,0,1-.4,2.7,11.509,11.509,0,0,1-1.2,2.5,9.093,9.093,0,0,1-1.8,2.1,8.533,8.533,0,0,1-2.1,1.4,4.769,4.769,0,0,1-2.7.6,4.306,4.306,0,0,1-2.2-.9,6.55,6.55,0,0,1-1.5-1.8l1.7-2.2A9.384,9.384,0,0,0,1453.6,114.5Z"/>
    </g>
  </g>
</svg>
