<svg xmlns="http://www.w3.org/2000/svg" viewBox="0 0 86.58 39.08"><defs><style>.cls-1{fill:none;stroke:#151413;stroke-miterlimit:10;stroke-width:0.75px;}</style></defs><g id="Layer_2" data-name="Layer 2"><g id="Layer_1-2" data-name="Layer 1"><path class="cls-1" d="M26.31,11,15.82,38.7H11L.54,11H5l9.28,26.86L23.61,11Z"/><path class="cls-1" d="M28.08,3.6A2.38,2.38,0,1,1,30.46,6,2.38,2.38,0,0,1,28.08,3.6Zm.51,35.1V10.93h3.73V38.7Z"/><path class="cls-1" d="M60.76,38.7H55.52L42.72,24a7.4,7.4,0,0,0-2.17,5.23V38.7H36.84V.38h3.71V24.12l11-11H49.15V11.68h8.51v1.48A9.79,9.79,0,0,0,50.74,16l-5.38,5.39Z"/><path class="cls-1" d="M86.2,10.92V38.7H82.57V33.92a13.46,13.46,0,0,1-10.18,4.62,13.25,13.25,0,0,1-5.69-1.27c-.28-.12-.57-.27-.85-.41l-.59-.37a4.3,4.3,0,0,1-.73-.5A13.51,13.51,0,0,1,79.1,13.27a.08.08,0,0,1,.07,0,.31.31,0,0,1,.14.11,13.88,13.88,0,0,1,3.26,2.69V10.92Zm-7.49,4-.18-.12a1,1,0,0,1-.18-.09l-.69-.34a8.65,8.65,0,0,0-3.06-.55,9.32,9.32,0,0,0-3.51.71,13.51,13.51,0,0,0-6.58,5.94c-3.23,5.54-2.39,12,1.8,14.64a1.11,1.11,0,0,0,.18.12,7.21,7.21,0,0,0,.87.45,8.87,8.87,0,0,0,6.57-.18,13.54,13.54,0,0,0,6.58-5.92C83.72,24,82.9,17.53,78.71,14.91Z"/></g></g></svg>