<svg xmlns="http://www.w3.org/2000/svg" viewBox="0 0 86.27 38.83"><defs><style>.cls-1{opacity:0.8;}.cls-2{fill:none;stroke:#151413;stroke-miterlimit:10;stroke-width:0.5px;}</style></defs><g id="Layer_2" data-name="Layer 2"><g id="Layer_1-2" data-name="Layer 1"><g class="cls-1"><path class="cls-2" d="M26.13,10.85,15.64,38.58H10.85L.36,10.85H4.85L14.13,37.7l9.29-26.85Z"/><path class="cls-2" d="M27.9,3.48a2.38,2.38,0,1,1,2.37,2.37A2.38,2.38,0,0,1,27.9,3.48Zm.51,35.1V10.8h3.73V38.58Z"/><path class="cls-2" d="M60.58,38.58H55.34L42.54,23.91a7.36,7.36,0,0,0-2.17,5.22v9.44H36.66V.25h3.71V24l11-11H49V11.56h8.51V13a9.79,9.79,0,0,0-6.92,2.87l-5.38,5.38Z"/><path class="cls-2" d="M86,10.8V38.58H82.39V33.8a13.5,13.5,0,0,1-10.18,4.62,13.3,13.3,0,0,1-5.7-1.28c-.27-.11-.57-.27-.84-.41a6.22,6.22,0,0,1-.59-.36,5.9,5.9,0,0,1-.73-.5A13.51,13.51,0,0,1,78.92,13.14s0,0,.07,0a.26.26,0,0,1,.14.11A13.88,13.88,0,0,1,82.39,16V10.8Zm-7.49,4-.18-.11c-.07,0-.12-.07-.18-.09l-.69-.34a8.47,8.47,0,0,0-3.06-.55,9.32,9.32,0,0,0-3.51.71,13.42,13.42,0,0,0-6.58,5.94c-3.24,5.53-2.39,12,1.8,14.64a1,1,0,0,0,.18.11,8.06,8.06,0,0,0,.86.46,9,9,0,0,0,6.58-.18,13.68,13.68,0,0,0,6.58-5.92C83.54,23.89,82.72,17.4,78.53,14.78Z"/></g></g></g></svg>